<svg xmlns="http://www.w3.org/2000/svg" width="40" height="40" viewBox="0 0 40 40">
  <defs>
    <linearGradient id="bg" x1="4" y1="3" x2="36" y2="38" gradientUnits="userSpaceOnUse">
      <stop stop-color="#1D1037"/>
      <stop offset="1" stop-color="#070A19"/>
    </linearGradient>
    <linearGradient id="droid" x1="11" y1="5" x2="20" y2="38" gradientUnits="userSpaceOnUse">
      <stop stop-color="#D1F90C"/>
      <stop offset="1" stop-color="#8FC600"/>
    </linearGradient>
    <linearGradient id="cyan" x1="8" y1="20" x2="29" y2="37" gradientUnits="userSpaceOnUse">
      <stop stop-color="#55E7FF"/>
      <stop offset="1" stop-color="#09A7D0"/>
    </linearGradient>
    <linearGradient id="handle" x1="31" y1="34" x2="39" y2="40" gradientUnits="userSpaceOnUse">
      <stop stop-color="#FF684C"/>
      <stop offset="1" stop-color="#E03632"/>
    </linearGradient>
    <clipPath id="tile"><rect x="2" y="2" width="36" height="36" rx="7"/></clipPath>
    <clipPath id="lens"><circle cx="19.2" cy="27" r="11.7"/></clipPath>
    <clipPath id="torso"><rect x="-2" y="19.2" width="31.5" height="20" rx="2.5"/></clipPath>
  </defs>
  <rect x="2" y="2" width="36" height="36" rx="7" fill="url(#bg)"/>
  <g clip-path="url(#tile)">
    <path d="M5.2 7.4 2.8 3.8m18 3.3 2.7-3.6" fill="none" stroke="url(#droid)" stroke-width="2" stroke-linecap="round"/>
    <path d="M-2 18.6C-1.2 10 5 5.8 13.7 5.8s14.8 5 15.6 12.8Z" fill="url(#droid)"/>
    <circle cx="6.9" cy="14" r="1.3" fill="#0A0B1D"/>
    <circle cx="20.2" cy="14" r="1.3" fill="#0A0B1D"/>
    <rect x="-2" y="19.2" width="31.5" height="20" rx="2.5" fill="url(#droid)"/>
    <rect x="30.7" y="21.4" width="4.2" height="12.5" rx="2.1" fill="url(#droid)"/>
    <g clip-path="url(#lens)">
      <path d="M7 15h25v4.8H7z" fill="#071A2B"/>
      <g clip-path="url(#torso)" fill="#071A2B" stroke="url(#cyan)" stroke-width=".75">
        <rect x="-1.5" y="19.8" width="30.6" height="5.2" rx="1.2"/>
        <rect x="-1.5" y="26" width="30.6" height="5.2" rx="1.2"/>
        <rect x="-1.5" y="32.2" width="30.6" height="5.2" rx="1.2"/>
      </g>
      <g fill="url(#cyan)">
        <circle cx="12.5" cy="22.4" r=".65"/><rect x="21.8" y="22" width="4.2" height=".85" rx=".43"/>
        <circle cx="12.5" cy="28.6" r=".65"/><rect x="21.8" y="28.2" width="4.2" height=".85" rx=".43"/>
        <circle cx="12.5" cy="34.8" r=".65"/><rect x="21.8" y="34.4" width="4.2" height=".85" rx=".43"/>
      </g>
    </g>
    <path d="m28.8 33.5 3.2 2.2" fill="none" stroke="#F8FAFC" stroke-width="3.1"/>
    <path d="m31.5 35.4 9 5.7" fill="none" stroke="url(#handle)" stroke-width="5" stroke-linecap="round"/>
    <circle cx="19.2" cy="27" r="11.7" fill="none" stroke="#F8FAFC" stroke-width="2.3"/>
  </g>
</svg>
